<?xml version="1.0" encoding="iso-8859-1"?>
<!-- Generator: Adobe Illustrator 19.0.0, SVG Export Plug-In . SVG Version: 6.00 Build 0)  -->
<svg version="1.1" id="Capa_1" xmlns="http://www.w3.org/2000/svg" xmlns:xlink="http://www.w3.org/1999/xlink" x="0px" y="0px"
	 viewBox="0 0 512 512" style="enable-background:new 0 0 512 512;" xml:space="preserve">
<g>
	<g>
		<path d="M379.667,49v57.667c0,20.671,13.42,38.255,32,44.531v2.136v13h-17v30h17v3.878c0,22.491-18.298,40.789-40.79,40.789
			c-17.584,0-33.135-11.208-38.696-27.891c-4.701-14.102-14.917-25.179-27.778-31.172c-6.837-3.186-14.419-4.937-22.321-4.937H271
			v-29.667h17v-30h-17v-15.135c18.58-6.276,32-23.86,32-44.531V0h-94v57.667c0,20.671,13.42,38.255,32,44.531v15.135h-17v30h17V177
			h-11.082c-7.902,0-15.484,1.751-22.321,4.937c-12.861,5.993-23.077,17.07-27.778,31.173c-5.561,16.682-21.112,27.89-38.696,27.89
			c-22.491,0-40.79-18.298-40.79-40.789v-3.878h17v-30h-17v-13v-2.135c18.58-6.276,32-23.86,32-44.531V49h-94v57.667
			c0,20.671,13.42,38.255,32,44.531v15.136h-17v30h17v3.878c0,39.033,31.756,70.789,70.79,70.789
			c30.518,0,57.506-19.452,67.156-48.404c3.11-9.329,11.806-15.596,21.639-15.596H241v38.085
			c-18.139,6.244-31.214,23.469-31.214,43.701c0,17.849,10.179,33.356,25.03,41.052c-12.368,25.3-31.273,66.909-31.273,84.836
			c0,23.713,15.82,43.79,37.456,50.26V482h-59.913v30h149.826v-30H271v-17.066c21.636-6.47,37.456-26.547,37.456-50.26
			c0-17.927-18.904-59.536-31.272-84.836c14.851-7.695,25.03-23.202,25.03-41.051c0-20.232-13.074-37.457-31.213-43.701V207h11.082
			c9.833,0,18.529,6.268,21.638,15.596C313.371,251.548,340.36,271,370.877,271c39.034,0,70.79-31.756,70.79-70.789v-3.878h17v-30
			h-17v-15.136c18.58-6.276,32-23.86,32-44.531V49H379.667z"/>
	</g>
</g>
<g>
</g>
<g>
</g>
<g>
</g>
<g>
</g>
<g>
</g>
<g>
</g>
<g>
</g>
<g>
</g>
<g>
</g>
<g>
</g>
<g>
</g>
<g>
</g>
<g>
</g>
<g>
</g>
<g>
</g>
</svg>
